<?xml version="1.0" standalone="no"?>
<!DOCTYPE svg PUBLIC "-//W3C//DTD SVG 20010904//EN"
 "http://www.w3.org/TR/2001/REC-SVG-20010904/DTD/svg10.dtd">
<svg version="1.0" xmlns="http://www.w3.org/2000/svg"
 width="501.000000pt" height="501.000000pt" viewBox="0 0 501.000000 501.000000"
 preserveAspectRatio="xMidYMid meet">
<metadata>
Created by potrace 1.15, written by Peter Selinger 2001-2017
</metadata>
<g transform="translate(0.000000,501.000000) scale(0.100000,-0.100000)"
fill="#000000" stroke="none">
<path d="M320 4990 c-24 -24 -25 -46 -5 -67 9 -9 13 -23 10 -34 -5 -15 -3 -17
11 -12 12 4 15 3 10 -5 -4 -6 2 -28 12 -49 14 -26 19 -54 17 -88 -2 -27 -4
-63 -4 -80 -1 -23 -4 -26 -11 -15 -5 8 -12 11 -16 7 -7 -6 -25 -163 -26 -215
0 -12 -13 -36 -29 -51 -18 -18 -27 -35 -23 -45 3 -9 10 -14 14 -11 9 5 20 -29
20 -62 0 -12 -9 -27 -19 -33 -11 -5 -29 -23 -41 -40 l-21 -29 22 -83 c12 -46
25 -110 30 -143 12 -80 15 -87 46 -109 14 -11 23 -14 19 -8 -7 12 15 20 68 26
20 2 32 11 38 26 5 14 14 20 23 16 10 -4 20 5 29 27 8 18 15 26 15 19 2 -23
21 -2 21 23 0 13 5 27 10 30 6 3 10 -4 10 -16 0 -22 0 -22 18 -2 57 64 96 62
109 -5 6 -37 13 -47 28 -48 11 -1 25 -3 30 -4 16 -5 65 11 65 21 0 5 13 9 30
9 22 0 28 4 24 15 -4 8 -1 15 5 15 6 0 11 12 11 26 0 14 4 23 9 19 15 -8 41
55 35 81 -4 17 2 34 20 58 14 19 26 39 26 45 0 6 5 11 10 11 6 0 10 7 10 16 0
16 36 73 53 85 5 3 8 31 8 63 0 31 5 56 10 56 12 0 39 25 39 36 0 4 7 12 16
18 13 10 16 35 16 145 0 92 -4 136 -12 141 -8 5 -9 13 -2 26 22 41 60 176 55
194 -5 19 -16 20 -414 20 -396 0 -410 -1 -429 -20z"/>
<path d="M4990 4652 c-8 -2 -62 -25 -120 -50 -105 -45 -163 -75 -315 -160 -44
-25 -114 -64 -155 -87 -81 -44 -177 -102 -305 -182 -78 -48 -131 -83 -325
-208 -91 -59 -211 -128 -370 -212 -211 -112 -248 -147 -229 -216 9 -33 12 -35
30 -24 10 6 15 13 9 15 -5 2 -10 12 -10 23 0 25 40 25 62 0 25 -29 29 -55 14
-77 -14 -18 -15 -18 -21 -1 -5 11 -18 17 -39 17 -37 0 -50 -8 -37 -24 5 -6 12
-29 15 -51 6 -33 3 -46 -13 -67 -12 -14 -21 -33 -21 -42 0 -9 -7 -28 -16 -41
-13 -20 -25 -25 -60 -25 -23 0 -46 -4 -49 -10 -3 -5 -15 -10 -26 -10 -25 0
-24 -12 2 -36 20 -18 54 -82 51 -97 -1 -4 1 -6 5 -6 22 4 33 -3 33 -17 0 -14
-3 -14 -15 -4 -12 10 -15 10 -15 -1 1 -30 29 -52 70 -53 48 -1 52 -25 6 -41
-23 -8 -30 -6 -43 10 -14 18 -15 12 -10 -73 2 -51 1 -95 -4 -98 -5 -3 -9 -16
-9 -28 0 -28 -45 -76 -72 -76 -11 0 -28 5 -39 10 -21 12 -26 1 -7 -18 7 -7 8
-12 2 -12 -12 0 -64 55 -88 93 -31 51 -30 19 3 -48 17 -36 31 -71 31 -78 -1
-7 -21 10 -46 38 -24 27 -42 55 -39 62 2 7 0 13 -5 13 -17 0 -21 -20 -9 -42 7
-12 11 -42 10 -66 -1 -37 6 -55 53 -125 29 -45 63 -101 75 -124 11 -23 25 -45
31 -48 6 -3 19 -24 30 -46 25 -49 44 -49 98 -3 37 31 45 34 60 23 14 -11 15
-11 5 1 -23 25 -15 56 22 84 19 15 35 22 35 17 0 -6 19 -28 42 -50 23 -23 39
-43 36 -47 -4 -3 -16 4 -27 15 -12 12 -25 21 -30 21 -5 0 -17 3 -25 6 -12 4
-15 2 -10 -9 3 -8 18 -17 35 -21 23 -4 29 -11 29 -31 0 -23 -4 -25 -40 -25
-22 0 -40 -4 -40 -10 0 -5 -9 -10 -20 -10 -25 0 -25 -8 -1 -37 25 -30 39 -29
34 1 -6 28 -1 32 58 40 l46 7 19 -43 c10 -24 20 -46 22 -49 1 -4 -6 -9 -18
-12 -29 -7 -25 -45 10 -86 16 -19 27 -38 25 -42 -3 -4 13 -2 35 3 49 13 65 2
74 -47 4 -19 17 -47 29 -62 25 -30 35 -87 15 -81 -6 2 -19 20 -30 38 -13 25
-18 29 -18 15 0 -11 14 -40 30 -64 17 -24 30 -48 30 -53 0 -4 9 -8 20 -8 15 0
20 7 20 27 0 26 1 26 17 10 15 -14 16 -21 5 -37 -9 -15 -10 -26 -1 -41 15 -29
8 -32 -35 -14 l-36 15 19 -36 c21 -39 20 -54 -5 -54 -13 0 -12 -5 3 -30 9 -17
25 -32 34 -35 16 -5 31 -58 44 -158 3 -26 10 -47 14 -47 10 0 48 36 60 57 5
10 12 15 16 11 8 -7 62 -146 82 -211 8 -26 23 -53 34 -60 10 -6 19 -17 19 -24
0 -7 9 -27 20 -45 11 -18 20 -42 20 -53 0 -11 14 -36 31 -55 17 -19 38 -44 45
-55 13 -17 16 -18 25 -5 10 13 10 13 6 0 -5 -17 37 -103 45 -94 3 2 8 -5 11
-17 5 -18 -2 -15 -34 17 -24 24 -38 46 -36 56 3 11 0 15 -8 11 -8 -2 -20 8
-29 25 -8 16 -31 49 -52 73 -20 24 -43 58 -50 74 -7 17 -22 39 -33 49 -12 11
-21 24 -21 30 0 14 -59 110 -94 152 -16 20 -42 36 -68 43 -52 13 -98 68 -98
116 0 17 -5 36 -12 43 -9 9 -8 12 5 12 15 0 14 5 -7 39 -15 24 -23 47 -19 60
3 12 1 21 -6 21 -12 0 -36 21 -59 52 -11 14 -11 22 1 45 13 24 13 33 2 58 -9
19 -14 24 -14 13 -1 -10 -7 -18 -14 -18 -8 0 -22 -9 -32 -20 -22 -25 -62 -26
-95 -3 -14 10 -35 16 -47 15 -17 -3 -24 3 -29 22 -8 31 -14 32 -42 6 -28 -26
-28 -38 3 -80 14 -19 25 -39 25 -45 0 -6 13 -29 29 -51 38 -52 54 -101 36
-108 -8 -3 -24 11 -39 32 -26 37 -92 96 -111 98 -5 0 -16 2 -23 2 -7 1 -24 27
-39 58 -21 42 -32 54 -45 50 -10 -2 -20 0 -24 5 -7 11 -100 55 -135 63 -18 4
-38 23 -60 58 -19 29 -33 56 -32 60 2 5 -4 8 -13 8 -11 0 -14 -6 -8 -22 4 -13
11 -26 16 -29 9 -6 0 -39 -11 -39 -4 0 -17 18 -30 40 -12 22 -31 45 -42 50
-11 6 -17 15 -13 21 3 6 17 -1 31 -16 26 -25 26 -25 40 -5 13 18 11 24 -13 55
-37 49 -57 59 -72 35 -10 -16 -9 -18 5 -13 11 4 14 3 9 -5 -4 -7 -2 -12 3 -12
6 0 11 -5 11 -11 0 -6 -6 -9 -12 -6 -17 6 -20 -36 -6 -88 5 -22 10 -41 10 -42
0 -2 8 -40 19 -85 10 -46 19 -104 19 -130 0 -37 5 -50 24 -66 14 -10 33 -43
44 -73 70 -195 70 -194 113 -218 34 -20 44 -21 74 -11 40 13 75 57 75 94 0 30
15 33 56 11 16 -8 39 -15 50 -15 12 0 26 -6 31 -12 6 -7 13 -71 17 -143 8
-148 44 -383 82 -530 56 -218 184 -554 221 -582 27 -21 43 -15 44 15 l0 27 17
-25 c23 -33 61 -70 72 -70 5 0 16 13 25 29 12 23 14 50 9 123 -6 85 -16 133
-84 378 -10 36 -33 130 -50 210 -17 80 -38 174 -47 209 -9 41 -11 67 -5 73 17
17 38 -41 48 -129 2 -23 9 -54 14 -68 6 -15 10 -40 10 -56 0 -91 132 -460 185
-519 13 -14 35 -49 50 -78 28 -58 105 -142 129 -142 21 0 36 31 36 72 0 37
-34 225 -49 273 -25 81 -96 257 -126 312 -18 35 -30 63 -26 63 26 -1 91 -86
91 -120 0 -15 14 -42 33 -66 19 -21 64 -85 100 -141 74 -115 136 -187 181
-210 28 -15 30 -15 18 0 -13 16 -7 24 17 23 11 -1 21 -12 38 -44 1 -2 16 -1
33 3 31 7 32 9 25 43 -13 66 -13 67 23 64 35 -4 72 19 72 45 0 13 -63 128
-121 223 -16 25 -58 93 -94 152 -69 113 -127 172 -157 162 -10 -3 -18 -1 -18
5 0 5 -13 25 -30 43 -28 31 -41 78 -21 78 14 0 -9 73 -28 87 -9 7 -25 13 -36
13 l-20 1 20 8 20 8 -20 5 c-16 5 -14 6 8 7 29 1 37 18 12 27 -11 5 -13 10 -5
19 8 9 6 24 -4 51 -8 22 -25 68 -38 103 -12 35 -32 72 -43 82 -11 9 -38 33
-59 51 -38 32 -86 115 -86 149 0 9 6 22 14 28 11 9 18 4 35 -24 12 -20 19 -40
16 -44 -2 -5 15 -21 40 -37 45 -28 70 -66 82 -126 3 -18 21 -50 38 -71 23 -26
36 -57 45 -100 12 -57 88 -228 90 -200 0 6 -14 49 -31 95 -17 46 -35 92 -39
103 -3 11 -23 54 -43 96 -21 42 -37 82 -37 89 0 7 -14 37 -30 67 -28 48 -29
57 -8 54 10 -1 -139 296 -152 304 -6 4 -27 39 -47 78 -19 40 -49 91 -64 114
-16 23 -29 46 -29 51 0 6 19 24 42 41 35 26 51 31 97 31 31 0 69 7 86 16 16 8
52 17 80 19 66 6 123 24 160 51 17 12 69 34 117 48 81 25 87 28 98 60 10 30
19 37 63 51 71 22 127 46 157 66 14 9 43 20 65 24 22 4 51 13 65 20 14 7 50
25 80 40 30 15 64 37 75 50 11 13 47 36 80 50 52 23 113 64 152 102 7 6 26 14
43 18 l30 7 0 250 0 251 -212 -6 c-117 -4 -247 -11 -288 -17 -186 -26 -411
-62 -474 -75 -80 -17 -86 -18 -86 -6 0 11 81 100 191 210 47 47 94 100 105
116 10 17 32 41 49 55 76 61 194 189 201 216 4 17 42 63 92 114 47 47 100 108
119 137 18 28 43 59 55 68 43 30 160 150 175 180 8 17 28 41 44 55 l30 25 -3
106 c-3 89 -5 105 -18 101z m-1413 -1882 c29 -17 57 -39 63 -50 6 -11 18 -20
26 -20 8 0 13 -4 10 -9 -3 -4 6 -13 19 -19 14 -7 25 -16 25 -22 0 -5 9 -10 20
-10 11 0 20 -4 20 -10 0 -15 -22 -12 -59 6 -18 9 -35 13 -38 10 -4 -3 -1 -6 5
-6 7 0 12 -4 12 -10 0 -18 -29 -10 -62 18 -18 15 -59 45 -90 66 -60 40 -62 43
-52 70 9 24 43 19 101 -14z m87 -236 c32 -24 54 -44 47 -44 -6 0 -11 -7 -11
-15 0 -17 -26 -20 -35 -4 -4 6 -13 8 -21 5 -7 -3 -16 -1 -20 5 -3 5 -23 21
-45 34 -50 32 -169 144 -169 159 0 7 5 17 11 23 8 8 34 -6 98 -54 47 -35 113
-84 145 -109z m-159 -28 l120 -114 -22 -23 -22 -23 -108 105 c-59 57 -114 109
-120 116 -7 6 -13 15 -13 20 0 12 22 33 35 33 5 0 64 -52 130 -114z m-551
-799 c6 -27 72 -90 85 -82 11 6 85 -62 98 -90 15 -30 25 -105 14 -105 -20 0
-40 43 -34 74 l6 31 -32 -29 c-17 -17 -31 -36 -31 -43 0 -28 -27 -10 -59 40
-20 31 -34 64 -34 82 0 16 -5 37 -12 45 -7 8 -16 26 -20 40 -4 14 -21 40 -36
58 -16 18 -29 35 -29 38 0 2 17 -5 39 -15 24 -13 41 -30 45 -44z m497 -837
c17 -91 37 -205 45 -255 8 -49 19 -109 24 -133 6 -23 10 -55 9 -70 -1 -17 -6
-4 -15 33 -8 33 -27 110 -43 170 -28 103 -62 269 -83 395 -5 30 -6 66 -3 80 6
24 7 23 21 -15 9 -22 29 -114 45 -205z"/>
<path d="M1678 3745 c-2 -3 -33 -7 -69 -11 -73 -6 -432 -121 -423 -135 3 -5 9
-7 13 -5 4 3 8 -1 8 -9 0 -18 2 -18 -48 2 -36 14 -70 15 -268 9 -231 -7 -353
-20 -527 -56 -178 -37 -306 -90 -320 -132 -3 -9 -14 -20 -25 -23 -19 -6 -19
-21 -18 -673 1 -367 4 -657 7 -644 9 30 26 33 30 5 2 -15 10 -23 22 -23 10 0
22 -9 25 -20 4 -11 11 -18 16 -14 6 3 6 10 1 17 -5 7 -6 23 -2 37 5 23 7 23
16 7 9 -15 12 -16 22 -5 12 15 5 58 -9 58 -5 0 -9 18 -9 40 0 39 -1 40 -36 40
-29 0 -35 3 -30 16 4 11 -1 22 -12 30 -16 11 -18 22 -14 64 3 33 1 50 -7 50
-6 0 -11 17 -11 40 0 22 4 40 9 40 5 0 12 8 15 18 3 9 22 34 41 55 28 31 39
36 49 28 11 -10 15 -4 21 29 4 22 10 40 15 40 4 0 6 -10 2 -22 -5 -21 -5 -21
20 -2 14 10 24 22 21 27 -2 4 -2 21 2 37 5 24 12 30 34 30 24 0 30 6 41 41 8
23 21 48 29 56 11 12 12 19 3 34 -15 23 -16 49 -2 49 6 0 10 7 10 15 0 8 8 15
18 15 9 0 29 11 44 25 18 17 39 25 63 25 26 0 35 4 35 17 0 14 4 13 23 -6 35
-32 54 -19 69 47 14 65 12 305 -3 310 -5 2 -9 12 -9 22 0 31 -22 70 -40 70 -9
0 -21 5 -27 11 -8 8 -13 8 -17 0 -4 -6 -12 -11 -17 -11 -6 0 -3 7 5 16 9 8 16
21 16 27 0 9 -2 9 -8 0 -4 -6 -18 -13 -32 -16 -14 -2 -19 -2 -12 0 7 3 10 8 7
13 -3 5 21 14 52 22 67 15 407 15 515 -1 68 -9 183 -58 269 -112 53 -34 145
-141 218 -256 28 -43 54 -82 58 -88 106 -134 223 -269 242 -277 9 -3 54 -20
101 -38 47 -17 93 -35 102 -41 30 -16 38 -11 28 17 -8 21 -8 25 4 21 18 -7 10
27 -10 44 -8 6 -14 18 -14 25 0 8 -9 14 -21 14 -13 0 -23 10 -31 30 -13 37
-55 52 -74 26 -7 -10 -10 -24 -7 -32 11 -30 -19 -12 -32 18 -12 29 -11 35 6
59 19 27 16 39 -8 39 -7 0 -13 -7 -13 -16 0 -8 -4 -13 -9 -10 -13 8 -1 49 18
62 12 10 20 7 36 -12 11 -13 30 -24 42 -24 16 0 27 -11 39 -40 21 -47 51 -53
89 -17 21 20 23 26 15 75 -5 29 -6 61 -3 70 5 14 3 15 -8 5 -21 -21 -38 -16
-31 10 5 21 4 21 -14 6 -10 -9 -34 -24 -52 -33 l-33 -17 18 28 c9 15 27 37 38
47 l20 19 -22 -6 c-19 -4 -23 -1 -23 19 0 26 -88 124 -110 124 -6 0 -25 13
-41 30 -24 24 -28 33 -20 49 8 14 7 20 -4 25 -8 3 -15 11 -15 18 0 7 -9 19
-20 26 -18 11 -19 10 -8 -16 7 -15 16 -33 21 -39 7 -10 -1 -13 -32 -13 -22 0
-41 4 -41 10 0 5 7 7 15 4 10 -4 15 0 15 16 0 11 -4 18 -10 15 -5 -3 -7 0 -5
8 3 7 -3 21 -14 31 -19 17 -21 17 -50 -4 -17 -12 -31 -25 -31 -30 0 -5 18 -23
40 -40 22 -17 40 -38 40 -45 0 -23 -22 -65 -34 -65 -6 0 -17 -9 -24 -20 -15
-25 -36 -26 -30 -2 4 15 0 17 -21 15 -21 -3 -32 6 -61 47 -19 27 -40 50 -47
50 -14 0 -83 58 -83 70 0 4 8 10 19 13 14 3 17 0 13 -15 -4 -18 -1 -19 32 -14
28 5 36 3 36 -9 0 -18 36 -20 43 -2 2 6 8 8 13 4 5 -4 4 -11 -2 -15 -10 -7
-16 -42 -6 -42 2 0 12 10 23 23 23 27 24 11 3 -32 -20 -40 -13 -51 10 -16 18
28 36 33 36 10 0 -9 6 -12 15 -9 21 8 19 -16 -2 -32 -15 -11 -11 -11 17 0 19
8 36 21 38 29 3 13 -38 55 -74 75 -13 7 -13 12 1 38 22 42 19 54 -15 65 -32
12 -31 34 1 24 12 -4 37 4 65 20 37 22 53 25 87 20 l42 -6 -45 24 c-61 32 -93
99 -39 82 27 -9 24 7 -6 33 -14 12 -25 27 -25 33 0 18 84 1 141 -28 31 -17 53
-23 57 -17 10 15 42 25 42 14 0 -5 -4 -12 -10 -15 -5 -3 -10 -12 -9 -18 0 -9
2 -9 6 1 5 13 32 17 34 5 0 -5 2 -18 3 -31 4 -37 22 -48 44 -29 39 35 44 14 6
-26 -27 -29 -25 -47 6 -47 40 0 130 -120 130 -173 0 -14 5 -29 10 -32 23 -14
9 -35 -24 -35 -28 0 -68 -24 -55 -34 52 -39 103 -66 112 -57 13 13 27 14 27 3
0 -4 -13 -15 -28 -24 -29 -18 -39 -48 -15 -48 7 0 21 8 32 19 18 18 18 18 30
0 6 -11 16 -19 23 -19 6 0 20 -8 30 -17 15 -13 24 -15 46 -7 17 6 41 7 63 1
28 -7 44 -5 67 7 17 9 44 16 61 16 29 0 71 38 71 64 0 6 -4 5 -9 -3 -10 -16
-43 -8 -83 20 -14 11 -30 19 -35 19 -4 0 -30 12 -58 25 -27 14 -59 25 -70 25
-11 0 -30 11 -42 23 -24 26 -93 165 -93 189 0 8 -9 23 -21 34 -11 10 -37 45
-56 77 -25 39 -39 54 -44 45 -4 -7 -9 -10 -11 -8 -2 3 -13 19 -26 37 -12 18
-22 37 -22 42 0 5 -33 26 -74 47 -60 29 -82 35 -109 30 -22 -4 -44 -1 -63 9
-30 15 -47 19 -56 10z m-158 -121 c-45 -30 -49 -41 -35 -89 8 -24 21 -55 31
-70 20 -31 14 -41 -16 -25 -43 23 -70 53 -64 72 4 13 1 16 -10 12 -15 -6 -42
31 -28 39 4 2 2 3 -3 1 -6 -1 -19 4 -30 12 -21 16 -55 19 -55 5 0 -9 -30 -24
-37 -18 -2 2 -1 11 2 19 9 24 96 43 255 57 8 0 3 -6 -10 -15z m-430 -98 c53
-10 60 -13 40 -19 -21 -6 -23 -9 -10 -18 11 -8 7 -9 -20 -4 -160 28 -501 41
-600 22 -31 -7 -32 -6 -10 3 46 20 133 28 335 28 121 1 226 -4 265 -12z"/>
<path d="M2884 3258 c2 -14 14 -36 25 -47 26 -26 27 -56 2 -108 -25 -51 -32
-207 -10 -227 8 -7 49 -29 92 -49 55 -26 77 -32 77 -22 0 8 -4 17 -10 20 -5 3
-10 20 -10 37 0 24 -10 39 -46 71 -41 36 -44 42 -30 55 12 12 18 13 30 3 16
-13 36 -7 36 11 0 5 -14 27 -31 49 -16 21 -33 55 -36 76 -3 21 -12 46 -19 57
-7 10 -10 24 -7 32 3 8 -3 17 -13 20 -11 4 -27 16 -37 28 l-17 21 4 -27z"/>
<path d="M2435 2920 c0 -50 5 -84 13 -91 6 -7 12 -18 12 -24 0 -15 43 -55 58
-55 7 0 12 7 12 15 0 14 12 19 33 16 14 -2 7 15 -14 29 -30 21 -52 68 -45 96
5 19 1 27 -19 36 -16 7 -25 19 -25 35 0 12 -6 23 -12 23 -9 0 -13 -23 -13 -80z"/>
<path d="M531 2748 c-49 -14 -77 -35 -91 -68 -10 -24 -10 -33 0 -45 6 -8 9
-19 5 -24 -10 -18 31 -81 53 -81 16 0 24 -33 10 -41 -8 -5 -17 0 -25 14 -12
22 -12 22 -13 -4 0 -32 46 -89 73 -89 15 0 18 5 15 25 -3 13 -1 22 4 19 5 -3
6 6 2 22 -6 24 -5 26 15 21 11 -3 21 -1 21 4 0 5 -6 9 -14 9 -8 0 -14 8 -13
19 0 11 6 17 14 14 7 -3 13 -1 13 3 0 5 18 20 40 33 36 22 44 41 19 41 -6 0
-7 -5 -3 -12 4 -7 3 -8 -4 -4 -17 10 -15 23 5 30 9 4 20 1 24 -6 7 -10 11 -10
21 0 9 9 9 12 -1 12 -7 0 -12 10 -11 23 1 12 -1 32 -5 45 -7 20 -12 24 -32 21
-3 0 -10 6 -15 15 -10 18 -54 20 -107 4z"/>
<path d="M2510 2726 c0 -1 7 -27 16 -56 17 -59 55 -120 99 -160 15 -14 34 -38
41 -55 7 -16 13 -23 14 -15 0 9 -9 33 -20 54 -10 22 -17 43 -14 48 3 5 -2 16
-12 23 -11 8 -14 15 -7 15 20 0 103 -62 103 -78 0 -8 -5 -10 -12 -6 -7 4 -2
-6 10 -23 12 -17 22 -37 22 -43 0 -17 81 -129 115 -160 l28 -25 -7 30 c-9 36
-24 55 -42 55 -12 0 -19 19 -15 42 0 4 -6 5 -14 2 -9 -4 -15 0 -15 8 0 7 -11
30 -25 50 -29 42 -35 94 -9 84 9 -3 12 -2 9 5 -4 5 -12 8 -18 6 -16 -5 -37 18
-37 40 0 14 -2 15 -9 4 -7 -10 -13 -11 -30 -2 -11 7 -21 16 -21 21 0 23 -101
125 -132 133 -10 3 -18 4 -18 3z"/>
<path d="M1822 2673 c2 -5 15 -31 30 -60 15 -28 46 -97 68 -154 63 -157 130
-288 176 -344 70 -85 185 -198 271 -268 99 -81 303 -211 303 -194 0 6 -7 39
-16 72 -8 33 -17 76 -20 95 -8 60 -53 194 -62 185 -3 -3 -11 0 -19 6 -10 9
-10 15 -2 25 6 8 8 21 5 30 -5 13 -9 14 -21 4 -12 -10 -15 -9 -15 7 0 45 -152
223 -191 223 -7 0 -24 11 -38 24 -15 14 -33 26 -41 28 -8 2 -35 22 -60 46 -33
31 -42 44 -32 51 8 5 11 17 7 33 -6 22 -12 26 -41 25 -19 -1 -34 -3 -34 -4 0
-2 9 -21 20 -43 11 -22 20 -53 20 -69 0 -16 7 -37 16 -46 30 -30 5 -28 -30 3
-19 16 -39 31 -46 34 -17 5 -32 85 -20 108 13 24 13 100 0 100 -5 0 -13 0 -17
0 -7 0 -9 -12 -14 -92 -4 -56 -19 -14 -19 52 0 55 -3 69 -17 75 -26 10 -156
55 -161 55 -2 0 -2 -3 0 -7z"/>
<path d="M4320 1881 c0 -6 -7 -11 -15 -11 -34 0 -43 -80 -18 -179 5 -20 3 -23
-11 -18 -13 5 -16 -1 -16 -38 0 -24 4 -46 9 -49 4 -3 14 -27 20 -53 7 -27 17
-56 22 -66 8 -15 6 -20 -10 -24 -12 -3 -21 -12 -21 -19 0 -8 -4 -14 -10 -14
-15 0 -12 -23 10 -74 12 -25 22 -72 24 -104 3 -33 14 -80 25 -105 12 -25 21
-54 21 -64 0 -10 9 -31 20 -48 29 -41 60 -110 60 -131 0 -14 7 -16 44 -12 41
5 44 4 34 -12 -9 -14 -8 -22 5 -35 16 -15 17 -15 17 4 0 11 7 27 16 36 9 8 14
24 11 35 -3 11 1 45 9 77 7 32 16 88 19 126 4 37 11 67 16 67 14 0 10 72 -6
100 -8 14 -14 36 -15 49 0 37 -22 91 -37 91 -7 0 -13 5 -13 10 0 6 -6 10 -14
10 -18 0 -26 60 -30 210 -3 101 -4 107 -38 160 -20 31 -42 61 -50 68 -21 17
-78 27 -78 13z"/>
<path d="M36 1824 c-9 -8 -16 -21 -16 -27 0 -7 -4 -6 -10 3 -6 10 -10 -303
-10 -892 l0 -908 210 0 c116 0 210 3 210 8 0 4 -9 32 -21 62 -11 30 -25 68
-31 83 -8 21 -16 27 -29 24 -11 -3 -19 -1 -19 3 0 5 -18 3 -40 -5 -32 -11 -40
-11 -40 -1 0 7 -22 19 -50 26 -27 7 -50 17 -50 22 0 4 -7 8 -15 8 -12 0 -35
54 -35 83 0 5 -7 15 -15 23 -8 9 -15 26 -15 39 0 13 -8 31 -17 40 -25 25 -30
109 -17 273 4 60 10 82 20 82 8 0 14 11 15 28 0 15 5 68 10 117 5 50 10 100
10 112 1 13 6 20 12 16 6 -4 8 2 5 15 -4 12 -2 20 3 16 5 -3 9 2 9 11 0 9 4
14 9 11 4 -3 -1 25 -11 62 -41 140 -47 171 -62 297 -15 128 -14 156 10 333 7
56 4 61 -20 36z"/>
<path d="M513 1563 c-18 -4 -21 -10 -20 -51 2 -42 0 -47 -26 -56 -20 -7 -33
-7 -47 2 -11 7 -20 10 -20 7 0 -3 15 -14 33 -25 21 -13 26 -20 14 -20 -9 0
-16 -3 -15 -7 1 -5 -3 -17 -9 -28 -17 -32 -6 -142 18 -176 12 -17 22 -41 23
-55 1 -16 6 -22 15 -19 12 5 12 3 0 -12 -12 -15 -12 -16 3 -10 16 6 23 1 56
-38 7 -8 22 -15 32 -15 18 0 20 7 20 73 0 39 -3 89 -7 110 -6 37 -7 39 -40 35
-25 -3 -37 0 -44 13 -10 20 -2 24 76 35 28 3 57 10 66 15 22 11 54 -13 46 -35
-4 -9 -17 -16 -32 -16 l-25 0 3 -97 c4 -106 -4 -161 -25 -174 -37 -24 -109 8
-133 57 -9 19 -20 32 -26 29 -13 -9 -11 -35 3 -35 9 0 9 -3 1 -11 -9 -9 -7
-20 5 -45 8 -19 19 -34 24 -34 4 0 8 -9 8 -19 0 -11 5 -23 10 -26 6 -4 7 -23
4 -46 -4 -22 -3 -39 3 -39 10 0 53 -80 53 -99 0 -6 4 -11 8 -11 5 0 14 -11 20
-24 6 -13 32 -39 58 -57 45 -31 48 -31 61 -14 16 23 17 40 3 66 -18 32 6 133
44 187 26 37 35 61 40 111 5 57 4 62 -10 50 -14 -11 -18 -11 -29 4 -10 14 -10
26 -2 53 8 26 8 40 -1 54 -6 11 -9 27 -6 37 5 15 4 16 -5 3 -10 -13 -12 -13
-21 0 -5 8 -10 25 -10 37 0 12 -5 25 -10 28 -6 4 -8 11 -4 16 3 5 3 23 -1 39
-5 22 -13 30 -28 31 -21 0 -21 1 -3 8 14 5 16 10 7 15 -10 6 -9 12 3 24 13 15
11 19 -25 36 -29 14 -42 28 -46 48 -3 15 -9 28 -14 28 -5 0 -8 10 -6 23 1 17
-3 22 -23 23 -14 1 -35 0 -47 -3z"/>
</g>
</svg>
